<svg xmlns="http://www.w3.org/2000/svg" width="45" height="31.5" viewBox="0 0 45 31.5">
  <path id="Icon_awesome-hands" data-name="Icon awesome-hands" d="M14.4,16.2a2.25,2.25,0,1,0-3.6,2.7l2.679,3.572a1.124,1.124,0,0,1-.105,1.47l-.9.9a1.118,1.118,0,0,1-1.659-.077L4.5,17.184V6.75a2.25,2.25,0,0,0-4.5,0V22.106a3.379,3.379,0,0,0,.738,2.109l7.32,9.443a4.2,4.2,0,0,1,.731,1.526A1.1,1.1,0,0,0,9.865,36h9.26a1.128,1.128,0,0,0,1.125-1.125V27a9.014,9.014,0,0,0-1.8-5.4L14.4,16.2ZM42.75,4.5A2.248,2.248,0,0,0,40.5,6.75V17.184l-6.314,7.58a1.129,1.129,0,0,1-1.659.077l-.9-.9a1.124,1.124,0,0,1-.105-1.47L34.2,18.9a2.25,2.25,0,0,0-3.6-2.7l-4.05,5.4a9.014,9.014,0,0,0-1.8,5.4v7.875A1.128,1.128,0,0,0,25.875,36h9.26a1.108,1.108,0,0,0,1.076-.816,4.2,4.2,0,0,1,.731-1.526l7.32-9.443A3.379,3.379,0,0,0,45,22.106V6.75A2.248,2.248,0,0,0,42.75,4.5Z" transform="translate(0 -4.5)" fill="#06a499"/>
</svg>
