<svg xmlns="http://www.w3.org/2000/svg" width="13.627" height="15.141" viewBox="0 0 13.627 15.141">
  <path id="Icon_material-date-range" data-name="Icon material-date-range" d="M9.042,9.813H7.528v1.514H9.042Zm3.028,0H10.556v1.514H12.07Zm3.028,0H13.584v1.514H15.1Zm1.514-5.3h-.757V3H14.341V4.514H8.285V3H6.771V4.514H6.014A1.507,1.507,0,0,0,4.508,6.028L4.5,16.627a1.514,1.514,0,0,0,1.514,1.514h10.6a1.519,1.519,0,0,0,1.514-1.514V6.028A1.519,1.519,0,0,0,16.612,4.514Zm0,12.112H6.014V8.3h10.6Z" transform="translate(-4.5 -3)" fill="#fff"/>
</svg>
