<svg xmlns="http://www.w3.org/2000/svg" width="25.875" height="25.875" viewBox="0 0 25.875 25.875">
  <g id="Icon_ionic-ios-add-circle-outline" data-name="Icon ionic-ios-add-circle-outline" transform="translate(-3.375 -3.375)">
    <path id="Path_377" data-name="Path 377" d="M22.765,16.141H18.131V11.507a1,1,0,0,0-1.99,0v4.634H11.507a.953.953,0,0,0-1,1,.963.963,0,0,0,1,1h4.634v4.634a.964.964,0,0,0,1,1,.99.99,0,0,0,1-1V18.131h4.634a1,1,0,0,0,0-1.99Z" transform="translate(-0.823 -0.823)" fill="#fff"/>
    <path id="Path_378" data-name="Path 378" d="M16.313,5.117A11.192,11.192,0,1,1,8.395,8.395a11.122,11.122,0,0,1,7.918-3.278m0-1.742A12.938,12.938,0,1,0,29.25,16.313,12.936,12.936,0,0,0,16.313,3.375Z" fill="#fff"/>
  </g>
</svg>
