<svg xmlns="http://www.w3.org/2000/svg" width="31.5" height="36" viewBox="0 0 31.5 36">
  <path id="Icon_fa-regular-copy" data-name="Icon fa-regular-copy" d="M27,23.625H13.5A1.128,1.128,0,0,1,12.375,22.5V4.5A1.128,1.128,0,0,1,13.5,3.375h9.851l4.774,4.774V22.5A1.128,1.128,0,0,1,27,23.625ZM13.5,27H27a4.5,4.5,0,0,0,4.5-4.5V8.149a3.375,3.375,0,0,0-.991-2.384L25.741.991A3.375,3.375,0,0,0,23.358,0H13.5A4.5,4.5,0,0,0,9,4.5v18A4.5,4.5,0,0,0,13.5,27ZM4.5,9A4.5,4.5,0,0,0,0,13.5v18A4.5,4.5,0,0,0,4.5,36H18a4.5,4.5,0,0,0,4.5-4.5V29.25H19.125V31.5A1.128,1.128,0,0,1,18,32.625H4.5A1.128,1.128,0,0,1,3.375,31.5v-18A1.128,1.128,0,0,1,4.5,12.375H6.75V9Z" fill="#fff"/>
</svg>
