<svg xmlns="http://www.w3.org/2000/svg" width="42.7" height="39" viewBox="0 0 42.7 39">
  <g id="Icon_akar-coin" data-name="Icon akar-coin" transform="translate(-0.5 -2)">
    <path id="Path_410" data-name="Path 410" d="M1.5,21.5C1.5,31.717,9.369,40,19.075,40S36.65,31.717,36.65,21.5,28.781,3,19.075,3,1.5,11.283,1.5,21.5Z" fill="none" stroke="#fff" stroke-linecap="round" stroke-linejoin="round" stroke-width="2"/>
    <path id="Path_411" data-name="Path 411" d="M21.6,13.48A6.629,6.629,0,0,0,17.438,12,7.179,7.179,0,0,0,10.5,19.4a7.179,7.179,0,0,0,6.938,7.4A6.633,6.633,0,0,0,21.6,25.32" transform="translate(2.1 2.1)" fill="none" stroke="#fff" stroke-linecap="round" stroke-linejoin="round" stroke-width="2"/>
    <path id="Path_412" data-name="Path 412" d="M15,3c8.016,0,24.05,1.85,24.05,18.5S23.016,40,15,40" transform="translate(3.15 0)" fill="none" stroke="#fff" stroke-width="2"/>
  </g>
</svg>
