<svg xmlns="http://www.w3.org/2000/svg" width="40.399" height="40.399" viewBox="0 0 40.399 40.399">
  <g id="pie-chart" transform="translate(0 -0.03)">
    <path id="Path_388" data-name="Path 388" d="M33.59,35.356A20.212,20.212,0,1,1,18.961.03V8.491a11.79,11.79,0,1,0,8.663,20.9Z" transform="translate(0 0)" fill="#fff"/>
    <path id="Path_389" data-name="Path 389" d="M28.439,12.75a19.878,19.878,0,0,1-5.022,12.1L17.45,18.885a11.61,11.61,0,0,0,2.528-6.135Z" transform="translate(11.96 8.718)" fill="#fff"/>
    <path id="Path_390" data-name="Path 390" d="M31.66,18.94H23.2A11.764,11.764,0,0,0,12.75,8.491V.03A20.2,20.2,0,0,1,31.66,18.94Z" transform="translate(8.739 0)" fill="#fff"/>
  </g>
</svg>
