<svg xmlns="http://www.w3.org/2000/svg" width="48.5" height="51.728" viewBox="0 0 48.5 51.728">
  <path id="Icon_awesome-shield-alt" data-name="Icon awesome-shield-alt" d="M46.644,8.456,27.244.373a4.865,4.865,0,0,0-3.728,0L4.116,8.456a4.845,4.845,0,0,0-2.991,4.476c0,20.057,11.569,33.92,22.381,38.426a4.865,4.865,0,0,0,3.728,0c8.659-3.607,22.391-16.066,22.391-38.426A4.851,4.851,0,0,0,46.644,8.456ZM25.385,45.094l-.01-38.5L43.148,14c-.333,15.3-8.3,26.382-17.763,31.091Z" transform="translate(-1.125 -0.002)" fill="#06a499"/>
</svg>
