<svg xmlns="http://www.w3.org/2000/svg" width="66.791" height="66.791" viewBox="0 0 66.791 66.791">
  <path id="Icon_awesome-check-circle" data-name="Icon awesome-check-circle" d="M67.353,33.958a33.4,33.4,0,1,1-33.4-33.4A33.4,33.4,0,0,1,67.353,33.958ZM30.095,51.64,54.872,26.863a2.155,2.155,0,0,0,0-3.047l-3.047-3.047a2.154,2.154,0,0,0-3.047,0L28.571,40.976l-9.434-9.434a2.155,2.155,0,0,0-3.047,0l-3.047,3.047a2.155,2.155,0,0,0,0,3.047l14,14a2.155,2.155,0,0,0,3.047,0Z" transform="translate(-0.563 -0.563)" fill="#06a499"/>
</svg>
