<svg xmlns="http://www.w3.org/2000/svg" width="46.875" height="62.5" viewBox="0 0 46.875 62.5">
  <g id="Group_283" data-name="Group 283" transform="translate(-172.47 -210.998)">
    <path id="Icon_awesome-file-invoice" data-name="Icon awesome-file-invoice" d="M218.491,223.815,206.54,211.852a2.926,2.926,0,0,0-2.075-.854h-.745v15.625h15.625v-.745A2.917,2.917,0,0,0,218.491,223.815ZM199.814,227.6V211H175.4a2.923,2.923,0,0,0-2.93,2.916v56.654a2.924,2.924,0,0,0,2.916,2.93h41.029a2.922,2.922,0,0,0,2.93-2.916V230.529h-16.6A2.938,2.938,0,0,1,199.814,227.6Zm-19.531-7.811a.976.976,0,0,1,.975-.977h9.768a.975.975,0,0,1,.977.975v1.955a.976.976,0,0,1-.975.977h-9.769a.977.977,0,0,1-.977-.975v-1.955Zm0,7.813a.976.976,0,0,1,.975-.977h9.768a.975.975,0,0,1,.977.975v1.955a.976.976,0,0,1-.975.977h-9.769a.977.977,0,0,1-.977-.975V227.6Zm31.25,37.109a.976.976,0,0,1-.975.977H200.79a.977.977,0,0,1-.977-.975v-1.955a.976.976,0,0,1,.975-.977h9.768a.975.975,0,0,1,.977.975v1.955Z" fill="#20b878"/>
    <g id="layer1">
      <path id="path3352" d="M195.908,235.643a8.2,8.2,0,0,0-1.328,16.345v7.042h2.378v-7.012a8.205,8.205,0,0,0-1.05-16.375Zm1.05,2.617a5.621,5.621,0,0,1,0,11.21Zm-2.378.05v11.111a5.6,5.6,0,0,1,0-11.111Z" fill="#040505"/>
    </g>
  </g>
</svg>
