<svg xmlns="http://www.w3.org/2000/svg" width="35.508" height="40.4" viewBox="0 0 35.508 40.4">
  <g id="user" transform="translate(-31)">
    <g id="Group_321" data-name="Group 321" transform="translate(38.102)">
      <g id="Group_320" data-name="Group 320">
        <path id="Path_381" data-name="Path 381" d="M131.652,0A10.652,10.652,0,1,0,142.3,10.652,10.665,10.665,0,0,0,131.652,0Z" transform="translate(-121)" fill="#fff"/>
      </g>
    </g>
    <g id="Group_323" data-name="Group 323" transform="translate(31 23.672)">
      <g id="Group_322" data-name="Group 322" transform="translate(0)">
        <path id="Path_382" data-name="Path 382" d="M62.008,304.592A15.186,15.186,0,0,0,51.121,300H46.387A15.186,15.186,0,0,0,35.5,304.592,15.524,15.524,0,0,0,31,315.545a1.184,1.184,0,0,0,1.184,1.184H65.325a1.184,1.184,0,0,0,1.184-1.184A15.524,15.524,0,0,0,62.008,304.592Z" transform="translate(-31 -300)" fill="#fff"/>
      </g>
    </g>
  </g>
</svg>
